<svg id="Ebene_1" data-name="Ebene 1" xmlns="http://www.w3.org/2000/svg" xmlns:xlink="http://www.w3.org/1999/xlink" width="344.6" height="722.94" viewBox="0 0 344.6 722.94"><defs><clipPath id="clip-path" transform="translate(-8.06 -20.9)"><path d="M214.45,704.68l0,11.78c4-2.29,5.95-5.32,5.95-8.34l0-11.79c0,3-2,6.06-6,8.35" style="fill:none"/></clipPath><clipPath id="clip-path-2" transform="translate(-8.06 -20.9)"><path d="M117.71,720.1c0,3,2,6,5.85,8.22l0-11.78c-3.9-2.25-5.85-5.23-5.85-8.22Z" style="fill:none"/></clipPath><clipPath id="clip-path-3" transform="translate(-8.06 -20.9)"><path d="M144.35,728.65l0,11.78a28.76,28.76,0,0,0,13.94,3.41H159a29,29,0,0,0,14-3.42l0-11.78c-7.9,4.56-20.78,4.56-28.61,0" style="fill:none"/></clipPath><clipPath id="clip-path-4" transform="translate(-8.06 -20.9)"><path d="M106.54,643.39l0,11.78c4-2.3,6-5.32,6-8.35l0-11.78c0,3-2,6.06-6,8.35" style="fill:none"/></clipPath><clipPath id="clip-path-5" transform="translate(-8.06 -20.9)"><path d="M9.8,658.81c0,3,2,6,5.85,8.22l0-11.78C11.72,653,9.78,650,9.77,647Z" style="fill:none"/></clipPath><clipPath id="clip-path-6" transform="translate(-8.06 -20.9)"><path d="M36.44,667.36l0,11.78c7.84,4.55,20.71,4.55,28.61,0l0-11.77c-7.89,4.56-20.76,4.56-28.6,0" style="fill:none"/></clipPath><clipPath id="clip-path-7" transform="translate(-8.06 -20.9)"><path d="M316.33,645.16l0,11.77c8.56-4.94,12.84-11.46,12.82-18l0-11.78c0,6.51-4.26,13-12.82,18" style="fill:none"/></clipPath><clipPath id="clip-path-8" transform="translate(-8.06 -20.9)"><path d="M216.52,654c0,6.42,4.22,12.85,12.61,17.72,16.9,9.83,44.65,9.82,61.65,0l0-11.78c-17,9.82-44.75,9.83-61.65,0-8.39-4.88-12.59-11.29-12.61-17.72Z" style="fill:none"/></clipPath><clipPath id="clip-path-9" transform="translate(-8.06 -20.9)"><path d="M150.73,592.92l.08,27.08c15-8.67,39.48-8.65,54.39,0,7.4,4.3,11.11,10,11.13,15.64l-.08-27.09c0-5.68-3.72-11.34-11.13-15.64s-17.31-6.5-27.17-6.5-19.72,2.16-27.22,6.5" style="fill:none"/></clipPath><clipPath id="clip-path-10" transform="translate(-8.06 -20.9)"><path d="M304.26,629.74l.07,27.09c18.72-10.8,28.06-25.06,28-39.31l-.08-27.09c0,14.24-9.3,28.51-28,39.31" style="fill:none"/></clipPath><clipPath id="clip-path-11" transform="translate(-8.06 -20.9)"><path d="M8.14,646.83c0,4.33,2.85,8.65,8.54,12l-.07-27.09c-5.69-3.31-8.54-7.63-8.55-12Z" style="fill:none"/></clipPath><clipPath id="clip-path-12" transform="translate(-8.06 -20.9)"><path d="M29.24,639.05l.08,27.09c11.45,6.65,30.06,6.65,41.58,0l-.08-27.09c-11.52,6.65-30.13,6.65-41.58,0" style="fill:none"/></clipPath><clipPath id="clip-path-13" transform="translate(-8.06 -20.9)"><path d="M116.44,709.77c0,4.33,2.86,8.65,8.54,12l-.08-27.1c-5.68-3.3-8.53-7.62-8.54-12Z" style="fill:none"/></clipPath><clipPath id="clip-path-14" transform="translate(-8.06 -20.9)"><path d="M137.54,702l.08,27.09c11.45,6.66,30.06,6.66,41.58,0L179.13,702c-11.53,6.65-30.13,6.65-41.59,0" style="fill:none"/></clipPath><clipPath id="clip-path-15" transform="translate(-8.06 -20.9)"><path d="M194.08,595c-15.51,11.78-42.54,15.19-60.39,7.63-8.86-3.76-13.79-9.51-14.6-15.8l1.25,9.64c.81,6.29,5.73,12,14.6,15.8,17.84,7.56,44.87,4.15,60.39-7.63,7.8-5.92,11.2-12.83,10.38-19.2l-1.25-9.64c.82,6.37-2.58,13.28-10.38,19.2" style="fill:none"/></clipPath><clipPath id="clip-path-16" transform="translate(-8.06 -20.9)"><path d="M251.58,252.18c17,16.89,26.36,47.32,26.47,85.71s-9.09,79.56-25.9,115.94c-15.38,33.31-35.27,58.24-56,70.22l33.61,19.53c20.74-12,40.63-36.91,56-70.22,16.81-36.39,26-77.56,25.89-115.94s-9.5-68.82-26.46-85.71a49.19,49.19,0,0,0-9.94-7.72l-33.61-19.53a49.19,49.19,0,0,1,9.94,7.72" style="fill:none"/></clipPath><clipPath id="clip-path-17" transform="translate(-8.06 -20.9)"><path d="M195.22,199.65l33.61,19.53c27.76-16,53.91-17.72,75.33-5.27l-33.6-19.53a60.38,60.38,0,0,0-30.68-8.21c-14,0-29.08,4.48-44.66,13.48" style="fill:none"/></clipPath><clipPath id="clip-path-18" transform="translate(-8.06 -20.9)"><path d="M56,494.15c0,3,2,6,5.86,8.23l0-11.78c-3.9-2.26-5.84-5.24-5.85-8.23Z" style="fill:none"/></clipPath><clipPath id="clip-path-19" transform="translate(-8.06 -20.9)"><path d="M341.57,521.23l0,11.78c4-2.3,6-5.32,6-8.35l0-11.77c0,3-2,6.05-5.95,8.34" style="fill:none"/></clipPath><clipPath id="clip-path-20" transform="translate(-8.06 -20.9)"><path d="M213.41,578.72l0,11.77c7.84,4.56,20.72,4.56,28.61,0l0-11.78c-7.9,4.56-20.78,4.56-28.61,0" style="fill:none"/></clipPath><clipPath id="clip-path-21" transform="translate(-8.06 -20.9)"><path d="M169.76,399.26c-7.56,4.37-19.78,4.37-27.3,0-3.73-2.17-5.6-5-5.61-7.86l.13,47.11c0,2.85,1.88,5.69,5.61,7.86,7.52,4.36,19.74,4.36,27.3,0,3.82-2.2,5.72-5.09,5.71-8l-.13-47.12c0,2.89-1.9,5.77-5.71,8" style="fill:none"/></clipPath><clipPath id="clip-path-22" transform="translate(-8.06 -20.9)"><path d="M202.77,380c-5,7.13-16.14,12.24-24.79,11.42-4.3-.41-7.19-2.2-8.39-4.78l19.84,42.73c1.2,2.58,4.09,4.38,8.38,4.78,8.66.82,19.76-4.29,24.8-11.42,2.54-3.58,3.06-7,1.85-9.61l-19.84-42.74c1.21,2.61.69,6-1.85,9.62" style="fill:none"/></clipPath><clipPath id="clip-path-23" transform="translate(-8.06 -20.9)"><path d="M89.51,408.84c-1.21,2.62-.69,6,1.84,9.63,5.05,7.13,16.15,12.24,24.8,11.42,4.3-.41,7.19-2.21,8.38-4.79l19.84-42.73c-1.19,2.58-4.08,4.37-8.38,4.78-8.65.82-19.75-4.29-24.79-11.42-2.54-3.59-3.06-7-1.85-9.62Z" style="fill:none"/></clipPath><clipPath id="clip-path-24" transform="translate(-8.06 -20.9)"><path d="M202.82,382c-25.49,14.72-66.68,14.71-92,0-12.58-7.31-18.87-16.87-18.9-26.46l0,11.78c0,9.58,6.33,19.15,18.91,26.46,25.31,14.71,66.5,14.72,92,0,12.82-7.41,19.23-17.12,19.2-26.82l0-11.78c0,9.7-6.37,19.42-19.19,26.82" style="fill:none"/></clipPath><clipPath id="clip-path-25" transform="translate(-8.06 -20.9)"><path d="M197.46,201.4c-22.64,13.07-59.22,13.07-81.71,0-11.18-6.5-16.77-15-16.79-23.5l.5,176.68c0,8.51,5.62,17,16.79,23.5,22.49,13.07,59.08,13.07,81.71,0C209.35,371.5,215,362.87,215,354.25l-.5-176.68c0,8.62-5.67,17.25-17.06,23.83" style="fill:none"/></clipPath><clipPath id="clip-path-26" transform="translate(-8.06 -20.9)"><path d="M193.73,188.29c-20.44,11.79-53.45,11.79-73.75,0-10.09-5.86-15.14-13.53-15.16-21.21l0,11.77c0,7.69,5.07,15.35,15.16,21.22,20.3,11.8,53.31,11.8,73.75,0,10.28-5.94,15.41-13.73,15.39-21.52l0-11.77c0,7.78-5.11,15.57-15.39,21.51" style="fill:none"/></clipPath><clipPath id="clip-path-27" transform="translate(-8.06 -20.9)"><path d="M187.66,66.55c-17.14,9.9-44.86,9.9-61.89,0-8.46-4.92-12.69-11.35-12.71-17.79l.34,117.79c0,6.44,4.25,12.87,12.7,17.79,17,9.89,44.75,9.89,61.89,0,8.63-5,12.93-11.52,12.91-18l-.33-117.79c0,6.52-4.29,13.06-12.91,18" style="fill:none"/></clipPath></defs><g id="microscope"><g style="clip-path:url(#clip-path)"><path d="M214.45,704.68l0,11.78c4-2.29,6-5.32,5.95-8.35l0-11.77c0,3-2,6-6,8.34" transform="translate(-8.06 -20.9)" style="fill:#4d4948"/></g><g style="clip-path:url(#clip-path-2)"><path d="M117.68,708.32l0,11.78a8,8,0,0,0,2.17,5.28l0-11.78a8,8,0,0,1-2.16-5.28" transform="translate(-8.06 -20.9)" style="fill:#4d4948"/><path d="M119.84,713.6l0,11.78a14.41,14.41,0,0,0,3.68,2.94l0-11.78a14.47,14.47,0,0,1-3.69-2.94" transform="translate(-8.06 -20.9)" style="fill:#969493"/></g><polygon points="115.5 707.42 136.33 719.53 136.29 707.75 115.47 695.65 115.5 707.42" style="fill:#656261"/><polygon points="164.9 707.75 164.93 719.52 206.43 695.57 206.4 683.78 164.9 707.75" style="fill:#4d4948"/><g style="clip-path:url(#clip-path-3)"><path d="M144.35,728.65l0,11.78a26.7,26.7,0,0,0,10,3.15l0-11.78a26.64,26.64,0,0,1-10-3.15" transform="translate(-8.06 -20.9)" style="fill:#969493"/><path d="M154.35,731.8l0,11.78c6.49.8,13.56-.25,18.6-3.16l0-11.78c-5,2.92-12.11,4-18.61,3.16" transform="translate(-8.06 -20.9)" style="fill:#4d4948"/></g><path d="M123.63,700c-7.9,4.55-7.94,12-.1,16.57l20.82,12.1c7.84,4.55,20.71,4.55,28.61,0l41.49-24c7.9-4.55,8-12,.11-16.57L193.73,676c-7.83-4.55-20.71-4.55-28.61,0Z" transform="translate(-8.06 -20.9)" style="fill:#969493"/><rect width="344.6" height="722.94" style="fill:none"/><g style="clip-path:url(#clip-path-4)"><path d="M106.55,643.39l0,11.78c4-2.29,6-5.32,6-8.35l0-11.77c0,3-2,6.05-6,8.34" transform="translate(-8.06 -20.9)" style="fill:#4d4948"/></g><g style="clip-path:url(#clip-path-5)"><path d="M9.77,647l0,11.78A8.1,8.1,0,0,0,12,664.08l0-11.77A8,8,0,0,1,9.77,647" transform="translate(-8.06 -20.9)" style="fill:#4d4948"/><path d="M11.93,652.31l0,11.77A14.26,14.26,0,0,0,15.65,667l0-11.78a14.47,14.47,0,0,1-3.69-2.94" transform="translate(-8.06 -20.9)" style="fill:#969493"/></g><polygon points="7.56 634.36 7.59 646.13 28.42 658.24 28.38 646.46 7.56 634.36" style="fill:#656261"/><polygon points="56.99 646.45 57.02 658.23 98.52 634.27 98.49 622.5 56.99 646.45" style="fill:#4d4948"/><g style="clip-path:url(#clip-path-6)"><path d="M36.44,667.36l0,11.77a26.7,26.7,0,0,0,10,3.16l0-11.78a26.82,26.82,0,0,1-10-3.15" transform="translate(-8.06 -20.9)" style="fill:#969493"/><path d="M46.44,670.51l0,11.78c6.49.8,13.56-.25,18.6-3.16l0-11.78c-5,2.91-12.11,4-18.61,3.16" transform="translate(-8.06 -20.9)" style="fill:#4d4948"/></g><path d="M15.72,638.68c-7.9,4.56-7.94,12-.1,16.57l20.82,12.11c7.84,4.55,20.71,4.55,28.61,0l41.49-24c7.9-4.56,7.94-12,.11-16.57l-20.82-12.1c-7.84-4.56-20.72-4.56-28.61,0Z" transform="translate(-8.06 -20.9)" style="fill:#969493"/><rect width="344.6" height="722.94" style="fill:none"/><g style="clip-path:url(#clip-path-7)"><path d="M316.33,645.15l0,11.78c8.55-4.94,12.83-11.46,12.81-18l0-11.78c0,6.52-4.26,13-12.82,18" transform="translate(-8.06 -20.9)" style="fill:#4d4948"/></g><polygon points="282.69 639.02 282.73 650.8 308.31 636.03 308.27 624.26 282.69 639.02" style="fill:#4d4948"/><g style="clip-path:url(#clip-path-8)"><path d="M216.49,642.19l0,11.78a17.39,17.39,0,0,0,4.67,11.37l0-11.78a17.35,17.35,0,0,1-4.67-11.37" transform="translate(-8.06 -20.9)" style="fill:#4d4948"/><path d="M221.16,653.56l0,11.78a31.34,31.34,0,0,0,7.94,6.36,57.49,57.49,0,0,0,21.57,6.8l0-11.77a57.56,57.56,0,0,1-21.57-6.81,31.17,31.17,0,0,1-7.94-6.36" transform="translate(-8.06 -20.9)" style="fill:#969493"/><path d="M250.67,666.72l0,11.78c14,1.74,29.23-.53,40.08-6.8l0-11.78c-10.86,6.27-26.09,8.54-40.08,6.8" transform="translate(-8.06 -20.9)" style="fill:#4d4948"/></g><path d="M229.3,624.21c-17,9.82-17.09,25.9-.2,35.71s44.65,9.82,61.65,0l25.58-14.77c17-9.82,17.1-25.89.2-35.71s-44.63-9.82-61.65,0Z" transform="translate(-8.06 -20.9)" style="fill:#969493"/><rect width="344.6" height="722.94" style="fill:none"/><g style="clip-path:url(#clip-path-9)"><path d="M150.73,592.91l.08,27.09c9.58-5.53,23-7.53,35.34-6l-.07-27.09c-12.34-1.53-25.77.47-35.35,6" transform="translate(-8.06 -20.9)" style="fill:#bcbaba"/><path d="M186.08,586.91l.07,27.09a50.71,50.71,0,0,1,19,6,27.76,27.76,0,0,1,7,5.61l-.08-27.09a27.58,27.58,0,0,0-7-5.61,50.66,50.66,0,0,0-19-6" transform="translate(-8.06 -20.9)" style="fill:#bcbaba"/><path d="M212.13,598.53l.08,27.09a15.39,15.39,0,0,1,4.12,10l-.08-27.09a15.29,15.29,0,0,0-4.12-10" transform="translate(-8.06 -20.9)" style="fill:#bcbaba"/></g><g style="clip-path:url(#clip-path-10)"><path d="M304.25,629.74l.08,27.09c18.72-10.8,28.06-25.06,28-39.31l-.08-27.09c0,14.24-9.3,28.51-28,39.31" transform="translate(-8.06 -20.9)" style="fill:#bcbaba"/></g><g style="clip-path:url(#clip-path-11)"><path d="M8.06,619.74l.08,27.09a11.62,11.62,0,0,0,3.14,7.64l-.08-27.09a11.68,11.68,0,0,1-3.14-7.64" transform="translate(-8.06 -20.9)" style="fill:#bcbaba"/><path d="M11.2,627.37l.08,27.09a20.93,20.93,0,0,0,5.4,4.33l-.07-27.09a21.37,21.37,0,0,1-5.41-4.33" transform="translate(-8.06 -20.9)" style="fill:#bcbaba"/></g><polygon points="8.55 610.8 8.63 637.89 21.26 645.24 21.19 618.15 8.55 610.8" style="fill:#bcbaba"/><polygon points="62.77 618.15 62.85 645.24 142.75 599.11 142.67 572.01 62.77 618.15" style="fill:#bcbaba"/><g style="clip-path:url(#clip-path-12)"><path d="M29.24,639.05l.08,27.09a39,39,0,0,0,14.59,4.61l-.07-27.09a39,39,0,0,1-14.6-4.61" transform="translate(-8.06 -20.9)" style="fill:#bcbaba"/><path d="M43.84,643.65l.08,27.1c9.41,1.17,19.64-.37,27-4.62L70.83,639c-7.35,4.24-17.58,5.78-27,4.61" transform="translate(-8.06 -20.9)" style="fill:#bcbaba"/></g><g style="clip-path:url(#clip-path-13)"><path d="M116.36,682.68l.08,27.09a11.58,11.58,0,0,0,3.14,7.63l-.08-27.09a11.63,11.63,0,0,1-3.14-7.63" transform="translate(-8.06 -20.9)" style="fill:#bcbaba"/><path d="M119.5,690.31l.08,27.09a21.49,21.49,0,0,0,5.4,4.33l-.07-27.09a21.37,21.37,0,0,1-5.41-4.33" transform="translate(-8.06 -20.9)" style="fill:#bcbaba"/></g><polygon points="116.85 673.74 116.93 700.83 129.56 708.18 129.49 681.08 116.85 673.74" style="fill:#bcbaba"/><polygon points="171.07 681.09 171.15 708.18 296.27 635.93 296.2 608.84 171.07 681.09" style="fill:#bcbaba"/><path d="M16.74,607.61C5.22,614.26,5.15,625,16.61,631.7l12.64,7.35c11.44,6.65,30.05,6.65,41.57,0l79.91-46.14c15-8.67,39.48-8.66,54.39,0s14.84,22.83-.17,31.5L125,670.55c-11.52,6.65-11.58,17.43-.14,24.09L137.54,702c11.46,6.65,30.07,6.65,41.59,0l125.12-72.24c37.19-21.47,37.38-56.6.44-78.06l-28.05-16.31c-36.94-21.47-97.59-21.47-134.77,0Z" transform="translate(-8.06 -20.9)" style="fill:#eaeae9"/><rect width="344.6" height="722.94" style="fill:none"/><g style="clip-path:url(#clip-path-14)"><path d="M137.54,702l.08,27.09a38.79,38.79,0,0,0,14.59,4.61l-.07-27.09a38.78,38.78,0,0,1-14.6-4.61" transform="translate(-8.06 -20.9)" style="fill:#bcbaba"/><path d="M152.14,706.59l.08,27.09c9.41,1.17,19.64-.36,27-4.61L179.13,702c-7.35,4.24-17.58,5.78-27,4.61" transform="translate(-8.06 -20.9)" style="fill:#bcbaba"/></g><polygon points="243.26 521.56 161.79 474.21 156.43 543.6 237.91 590.95 243.26 521.56" style="fill:#bcbaba"/><polygon points="298.72 489.54 217.25 442.19 161.79 474.21 243.26 521.56 298.72 489.54" style="fill:#dcdcdc"/><polygon points="243.26 521.56 237.91 590.95 304.45 552.53 298.72 489.54 243.26 521.56" style="fill:#bcbaba"/><g style="clip-path:url(#clip-path-15)"><path d="M119.09,586.86l1.25,9.64a17.05,17.05,0,0,0,6,10.51l-1.24-9.64a17,17,0,0,1-6-10.51" transform="translate(-8.06 -20.9)" style="fill:#4d4948"/><path d="M125.05,597.37l1.24,9.64a31.19,31.19,0,0,0,8.65,5.29,56.75,56.75,0,0,0,22,4l-1.24-9.64a56.84,56.84,0,0,1-22-4,31.22,31.22,0,0,1-8.64-5.29" transform="translate(-8.06 -20.9)" style="fill:#656261"/><path d="M155.73,606.68l1.24,9.64c13.89,0,28.47-4.14,38.36-11.65,7.8-5.92,11.2-12.83,10.38-19.2l-1.25-9.64c.83,6.37-2.58,13.28-10.38,19.2-9.89,7.51-24.46,11.62-38.35,11.65" transform="translate(-8.06 -20.9)" style="fill:#4d4948"/></g><path d="M129.47,567.66c-15.51,11.77-13.62,27.44,4.22,35s44.88,4.15,60.39-7.63,13.62-27.44-4.22-35-44.88-4.14-60.39,7.63" transform="translate(-8.06 -20.9)" style="fill:#969493"/><path d="M125,587.23v0c1.09,5,5.28,9.53,12.43,12.54,15.45,6.56,38.86,3.6,52.29-6.6,4.95-3.76,7.86-8,8.77-12.14v0c1.57-7.09-2.69-14-12.43-18.13-15.45-6.56-38.86-3.6-52.28,6.6-7.23,5.47-10.1,11.92-8.78,17.73" transform="translate(-8.06 -20.9)" style="fill:#4d4948"/><path d="M125,587.23v0c1.09,5,5.28,9.53,12.43,12.54,15.45,6.56,38.86,3.6,52.29-6.6,4.95-3.76,7.86-8,8.77-12.14v0c-1.11-5-5.3-9.52-12.43-12.54-15.45-6.54-38.86-3.58-52.28,6.6-5,3.76-7.87,8-8.78,12.14" transform="translate(-8.06 -20.9)" style="fill:#2c78b6"/><rect width="344.6" height="722.94" style="fill:none"/><polygon points="221.69 522.68 188.08 503.15 188.22 550.27 221.82 569.8 221.69 522.68" style="fill:#c6c6c6"/><g style="clip-path:url(#clip-path-16)"><path d="M275.25,264l-33.61-19.53a49.19,49.19,0,0,1,9.94,7.72c14.77,14.72,23.81,39.71,26,71.3L311.15,343c-2.15-31.58-11.19-56.58-26-71.3a48.83,48.83,0,0,0-9.94-7.72" transform="translate(-8.06 -20.9)" style="fill:#bcbaba"/><path d="M311.16,343l-33.61-19.53q.48,7,.5,14.42a266.4,266.4,0,0,1-5.78,54.89l33.61,19.54a266.57,266.57,0,0,0,5.78-54.9q0-7.41-.5-14.42" transform="translate(-8.06 -20.9)" style="fill:#bcbaba"/><path d="M305.88,412.32l-33.61-19.54a285.77,285.77,0,0,1-20.12,61.05c-14.3,30.95-32.48,54.67-51.62,67.48l33.6,19.53c19.14-12.81,37.33-36.53,51.63-67.48a285.87,285.87,0,0,0,20.12-61" transform="translate(-8.06 -20.9)" style="fill:#bcbaba"/><path d="M234.13,540.85l-33.6-19.54q-2.19,1.47-4.39,2.74l33.61,19.53q2.19-1.27,4.38-2.73" transform="translate(-8.06 -20.9)" style="fill:#d5d4d4"/></g><g style="clip-path:url(#clip-path-17)"><path d="M304.16,213.91l-33.6-19.53c-14.73-8.55-31.68-10.44-49.86-5.57l33.6,19.53c18.18-4.86,35.14-3,49.86,5.57" transform="translate(-8.06 -20.9)" style="fill:#eaeae9"/><path d="M254.3,208.34l-33.6-19.53a106.3,106.3,0,0,0-25.48,10.84l33.61,19.53a106.41,106.41,0,0,1,25.47-10.84" transform="translate(-8.06 -20.9)" style="fill:#eaeae9"/></g><polygon points="200.27 212.5 166.66 192.97 166.89 271.14 200.49 290.67 200.27 212.5" style="fill:#c6c6c6"/><polygon points="220.77 198.28 187.16 178.75 166.66 190.59 200.27 210.12 220.77 198.28" style="fill:#eaeae9"/><path d="M208.33,231l.22,78.17,41-23.67-.08-26.6c13.15-1.77,25.4,2.54,35.71,12.8,17,16.9,26.36,47.32,26.46,85.71S302.57,437,285.76,473.36c-15.38,33.31-35.27,58.24-56,70.22l.13,47.12C264.07,571,295.71,532.33,319,482c21.86-47.31,33.81-99.94,33.67-148.21s-12.35-87-34.39-108.91c-23.49-23.39-55.24-25.4-89.43-5.66Z" transform="translate(-8.06 -20.9)" style="fill:#dbdbdb"/><path d="M222.44,259.78a4.75,4.75,0,0,1-.21-.67c0-.17-.06-.34-.09-.52s-.06-.32-.07-.49,0-.35,0-.52a9.27,9.27,0,0,1,.11-1.38l.06-.35c0-.12,0-.23.05-.36s.14-.5.21-.76.05-.24.09-.36c.15-.48.32-1,.52-1.42l.15-.3c.17-.37.35-.73.55-1.09.08-.15.17-.29.26-.44.19-.31.39-.61.59-.91.1-.14.19-.27.3-.41a11.53,11.53,0,0,1,.84-1l.13-.16a11.32,11.32,0,0,1,1.08-1,3.81,3.81,0,0,1,.32-.24c.17-.14.35-.29.53-.41l.51-.31a7,7,0,0,1,.77-.39l.22-.09a5.52,5.52,0,0,1,.53-.18l.14,0,.09,0,.65-.12h.07a5,5,0,0,1,.67,0l.17,0a3.56,3.56,0,0,1,.47.1.55.55,0,0,1,.17,0,2.78,2.78,0,0,1,.56.24l33.6,19.53h0c1.14.65,1.85,2.05,1.86,4.05A13.93,13.93,0,0,1,262,280.73c-1.77,1-3.36,1.1-4.51.42a0,0,0,0,0,0,0l-33.6-19.53a2.87,2.87,0,0,1-.74-.61c-.07-.08-.12-.18-.19-.27a4.65,4.65,0,0,1-.37-.57c-.06-.13-.11-.28-.16-.41m40.28,6,.12-.05-.12.05m2.36-.47.15,0-.14,0Z" transform="translate(-8.06 -20.9)" style="fill:#797675"/><polygon points="270.71 233.64 259.59 227.17 255.71 225.31 266.84 231.78 270.71 233.64" style="fill:#4d4948"/><polygon points="237.24 276.09 226.12 269.63 228.75 273.36 239.87 279.82 237.24 276.09" style="fill:#4d4948"/><polygon points="266.44 225.98 255.31 219.51 250.28 220.65 261.41 227.11 266.44 225.98" style="fill:#656261"/><polygon points="231.82 271.43 220.69 264.96 221.09 270.77 232.21 277.23 231.82 271.43" style="fill:#656261"/><polygon points="258.79 223.38 247.67 216.91 242.47 220.83 253.6 227.29 258.79 223.38" style="fill:#969493"/><polygon points="229.87 262.84 218.75 256.37 216.82 263.1 227.94 269.57 229.87 262.84" style="fill:#969493"/><polygon points="253.6 227.3 242.47 220.83 238.13 219.92 249.26 226.39 253.6 227.3" style="fill:#4d4948"/><polygon points="249.26 226.39 238.13 219.92 233.81 225.83 244.93 232.3 249.26 226.39" style="fill:#969493"/><polygon points="227.92 258.35 216.79 251.88 218.74 256.37 229.87 262.84 227.92 258.35" style="fill:#656261"/><polygon points="231.76 252.03 220.64 245.56 216.79 251.88 227.91 258.35 231.76 252.03" style="fill:#969493"/><polygon points="239.74 234.38 228.62 227.91 226.02 234.66 237.14 241.12 239.74 234.38" style="fill:#969493"/><polygon points="244.93 232.3 233.81 225.83 228.62 227.91 239.74 234.38 244.93 232.3" style="fill:#656261"/><polygon points="237.14 241.12 226.02 234.66 221 239.32 232.13 245.79 237.14 241.12" style="fill:#969493"/><polygon points="249.26 226.39 244.93 232.3 239.74 234.38 237.15 241.12 232.13 245.79 231.77 252.03 227.91 258.35 229.87 262.84 227.95 269.57 231.82 271.43 232.22 277.23 237.24 276.09 239.87 279.83 245.06 275.92 249.4 276.82 253.72 270.91 258.92 268.83 261.51 262.09 266.53 257.42 266.89 251.18 270.75 244.86 268.78 240.37 270.71 233.64 266.84 231.78 266.44 225.98 261.41 227.11 258.79 223.38 253.6 227.29 249.26 226.39" style="fill:#4d4948"/><polygon points="232.13 245.79 221 239.32 220.64 245.56 231.76 252.03 232.13 245.79" style="fill:#656261"/><rect width="344.6" height="722.94" style="fill:none"/><g style="clip-path:url(#clip-path-18)"><path d="M55.93,482.37l0,11.78a8.1,8.1,0,0,0,2.16,5.28l0-11.78a8.07,8.07,0,0,1-2.17-5.28" transform="translate(-8.06 -20.9)" style="fill:#4d4948"/><path d="M58.1,487.65l0,11.78a15,15,0,0,0,3.7,2.95l0-11.78a14.49,14.49,0,0,1-3.69-3" transform="translate(-8.06 -20.9)" style="fill:#969493"/></g><g style="clip-path:url(#clip-path-19)"><path d="M341.57,521.23l0,11.78c4-2.29,6-5.32,6-8.35l0-11.77c0,3-2,6.05-5.95,8.34" transform="translate(-8.06 -20.9)" style="fill:#4d4948"/></g><polygon points="53.74 469.71 53.77 481.48 205.39 569.6 205.35 557.82 53.74 469.71" style="fill:#656261"/><polygon points="233.96 557.81 234 569.59 333.55 512.12 333.51 500.33 233.96 557.81" style="fill:#4d4948"/><rect width="344.6" height="722.94" style="fill:none"/><g style="clip-path:url(#clip-path-20)"><path d="M213.41,578.71l0,11.78a26.52,26.52,0,0,0,10,3.15l0-11.77a26.64,26.64,0,0,1-10-3.16" transform="translate(-8.06 -20.9)" style="fill:#656261"/><path d="M223.41,581.87l0,11.77c6.49.81,13.56-.24,18.6-3.15l0-11.78c-5,2.91-12.11,4-18.61,3.16" transform="translate(-8.06 -20.9)" style="fill:#4d4948"/></g><path d="M61.89,474c-7.9,4.56-8,12-.1,16.57l151.62,88.11c7.84,4.56,20.71,4.56,28.61,0l99.55-57.48c7.9-4.56,7.94-12,.1-16.57L190.06,416.55c-7.85-4.56-20.72-4.56-28.62,0Z" transform="translate(-8.06 -20.9)" style="fill:#969493"/><rect width="344.6" height="722.94" style="fill:none"/><path d="M114.62,485.79a1.37,1.37,0,0,1-.81-1.39,2.05,2.05,0,0,1,1.17-1.47L127,476,98.4,459.52a1.44,1.44,0,0,1-.87-1.35c0-.55.44-1.05,1.22-1.5l10.08-5.82a7.52,7.52,0,0,1,2.07-.82c.74-.19,1.48-.35,2.23-.49l68.5-8.7a8.31,8.31,0,0,1,5.2.92l13.41,7.74a1.44,1.44,0,0,1,.86,1.36c0,.55-.44,1.05-1.22,1.5l-41.14,23.76,8.08,4.66c.73.43,1.05.91,1,1.47a2.23,2.23,0,0,1-1.21,1.44l-10.5,6.06a5.35,5.35,0,0,1-2.6.71,4.5,4.5,0,0,1-2.35-.5l-8.17-4.72-12,6.92a5.47,5.47,0,0,1-2.55.67,4.42,4.42,0,0,1-2.4-.47ZM127,458.62l15.42,8.91,25-14.45Z" transform="translate(-8.06 -20.9)"/><path d="M167.1,517.31q-6.61-3.81-9.26-7.86a11.34,11.34,0,0,1-2-8.09,15.5,15.5,0,0,1,4-8,41.89,41.89,0,0,1,9-7.42c1.85-1.13,4-2.42,6.38-3.84s4.89-2.86,7.43-4.29,4.83-2.7,6.87-3.81a67.6,67.6,0,0,1,12.84-5.13,59.26,59.26,0,0,1,13.76-2.22,53.58,53.58,0,0,1,14,1.27,47.17,47.17,0,0,1,13.37,5.27Q250,477,252.67,481a11.36,11.36,0,0,1,2.15,8A15.75,15.75,0,0,1,251,497a38.36,38.36,0,0,1-8.85,7.45c-1.92,1.17-4.12,2.5-6.6,4s-4.95,2.9-7.42,4.29-4.69,2.62-6.66,3.69a68.7,68.7,0,0,1-12.89,5.16,61.23,61.23,0,0,1-13.78,2.33,52.05,52.05,0,0,1-14-1.15A47.79,47.79,0,0,1,167.1,517.31Zm15.38-8.88A15.89,15.89,0,0,0,193,510.38a34,34,0,0,0,11.85-4.24q3.25-1.67,6.7-3.6c2.29-1.29,4.55-2.59,6.78-3.92s4.24-2.57,6-3.74q5.75-3.42,7.19-6.75T228.29,482a16.42,16.42,0,0,0-10.56-1.8A35.37,35.37,0,0,0,206,484.27c-1.91,1.11-4,2.3-6.3,3.59s-4.55,2.59-6.78,3.92-4.38,2.58-6.43,3.76q-5.85,3.6-7.21,6.92C178.33,504.67,179.41,506.67,182.48,508.43Z" transform="translate(-8.06 -20.9)"/><path d="M230.61,552.75a1.35,1.35,0,0,1-.81-1.38A2,2,0,0,1,231,549.9L243,543l-28.56-16.49a1.43,1.43,0,0,1-.87-1.36c0-.55.44-1,1.22-1.5l10.07-5.81a7.74,7.74,0,0,1,2.08-.83c.74-.18,1.48-.34,2.22-.49l68.51-8.69a8.19,8.19,0,0,1,5.2.92l13.41,7.74a1.45,1.45,0,0,1,.86,1.36c0,.55-.44,1-1.22,1.5l-41.14,23.75,8.08,4.67c.73.42,1.05.91.95,1.46a2.24,2.24,0,0,1-1.22,1.45l-10.49,6.06a5.35,5.35,0,0,1-2.6.7,4.38,4.38,0,0,1-2.35-.5l-8.17-4.72-12,6.92a5.43,5.43,0,0,1-2.54.67,4.34,4.34,0,0,1-2.4-.46Zm12.33-27.16,15.43,8.91,25-14.45Z" transform="translate(-8.06 -20.9)"/><g style="clip-path:url(#clip-path-21)"><path d="M136.85,391.41l.13,47.11a7.68,7.68,0,0,0,2.07,5l-.14-47.11a7.64,7.64,0,0,1-2.06-5" transform="translate(-8.06 -20.9)" style="fill:#4d4948"/><path d="M138.91,396.43l.14,47.11a13.9,13.9,0,0,0,3.54,2.84,25.38,25.38,0,0,0,9.58,3L152,402.29a25.38,25.38,0,0,1-9.57-3,14.18,14.18,0,0,1-3.55-2.84" transform="translate(-8.06 -20.9)" style="fill:#4d4948"/><path d="M152,402.29l.14,47.11c6.18.77,12.9-.24,17.72-3,3.82-2.2,5.72-5.09,5.71-8l-.14-47.12c0,2.88-1.89,5.77-5.7,8-4.82,2.79-11.54,3.8-17.73,3" transform="translate(-8.06 -20.9)" style="fill:#797675"/></g><path d="M142.55,383.45c-7.57,4.36-7.61,11.45-.09,15.82s19.73,4.36,27.3,0,7.62-11.45.1-15.81-19.75-4.37-27.31,0" transform="translate(-8.06 -20.9)" style="fill:#969493"/><rect width="344.6" height="722.94" style="fill:none"/><g style="clip-path:url(#clip-path-22)"><path d="M169.59,386.62l19.84,42.73a7.67,7.67,0,0,0,4,3.69L173.56,390.3a7.65,7.65,0,0,1-4-3.68" transform="translate(-8.06 -20.9)" style="fill:#4d4948"/><path d="M173.56,390.3,193.4,433a14.18,14.18,0,0,0,4.41,1.09,25.42,25.42,0,0,0,10-1.26L188,390.14a25.79,25.79,0,0,1-10,1.26,13.9,13.9,0,0,1-4.41-1.1" transform="translate(-8.06 -20.9)" style="fill:#4d4948"/><path d="M188,390.14l19.84,42.73c5.94-1.89,11.61-5.61,14.82-10.16,2.54-3.59,3.06-7,1.85-9.62l-19.84-42.73c1.21,2.61.69,6-1.85,9.62-3.21,4.54-8.88,8.27-14.82,10.16" transform="translate(-8.06 -20.9)" style="fill:#797675"/></g><path d="M171.44,377c-5,7.14-2.12,13.57,6.54,14.4s19.75-4.29,24.79-11.42,2.12-13.59-6.53-14.41-19.75,4.3-24.8,11.43" transform="translate(-8.06 -20.9)" style="fill:#969493"/><rect width="344.6" height="722.94" style="fill:none"/><g style="clip-path:url(#clip-path-23)"><path d="M144.37,382.37l-19.83,42.74a7.65,7.65,0,0,1-4,3.68l19.84-42.73a7.64,7.64,0,0,0,4-3.69" transform="translate(-8.06 -20.9)" style="fill:#4d4948"/><path d="M140.41,386.06l-19.84,42.73a13.64,13.64,0,0,1-4.42,1.09,25.39,25.39,0,0,1-10-1.26L126,385.89a25.35,25.35,0,0,0,10,1.26,14.18,14.18,0,0,0,4.42-1.09" transform="translate(-8.06 -20.9)" style="fill:#4d4948"/><path d="M126,385.89l-19.84,42.73c-5.94-1.88-11.61-5.61-14.82-10.16-2.54-3.59-3.06-7-1.85-9.62l19.84-42.73c-1.21,2.61-.69,6,1.85,9.62,3.21,4.55,8.89,8.27,14.82,10.16" transform="translate(-8.06 -20.9)" style="fill:#797675"/></g><path d="M142.53,372.76c5,7.13,2.12,13.57-6.54,14.39s-19.75-4.29-24.79-11.42-2.12-13.58,6.53-14.41,19.76,4.3,24.8,11.44" transform="translate(-8.06 -20.9)" style="fill:#969493"/><rect width="344.6" height="722.94" style="fill:none"/><g style="clip-path:url(#clip-path-24)"><path d="M91.92,355.53l0,11.78c0,5.8,2.34,11.6,7,16.89l0-11.78c-4.62-5.29-6.93-11.09-7-16.89" transform="translate(-8.06 -20.9)" style="fill:#4d4948"/><path d="M98.87,372.42l0,11.78a47,47,0,0,0,12,9.57c9.17,5.33,20.43,8.73,32.27,10.2l0-11.78c-11.84-1.47-23.1-4.87-32.28-10.2a47.12,47.12,0,0,1-11.95-9.57" transform="translate(-8.06 -20.9)" style="fill:#656261"/><path d="M143.1,392.19l0,11.78c20.83,2.58,43.46-.82,59.71-10.2,12.82-7.41,19.22-17.12,19.19-26.82l0-11.78c0,9.7-6.37,19.42-19.19,26.82-16.25,9.38-38.89,12.78-59.72,10.2" transform="translate(-8.06 -20.9)" style="fill:#4d4948"/></g><path d="M111.12,328.7c-25.49,14.72-25.61,38.58-.3,53.29s66.51,14.72,92,0,25.6-38.57.29-53.28-66.51-14.72-92,0" transform="translate(-8.06 -20.9)" style="fill:#969493"/><rect width="344.6" height="722.94" style="fill:none"/><g style="clip-path:url(#clip-path-25)"><path d="M99,177.9l.5,176.68c0,5.15,2.07,10.3,6.17,15l-.5-176.68c-4.1-4.7-6.16-9.85-6.17-15" transform="translate(-8.06 -20.9)" style="fill:#dbdbdb"/><path d="M105.13,192.9l.5,176.68a41.88,41.88,0,0,0,10.62,8.5c8.15,4.73,18.15,7.76,28.67,9.06l-.5-176.68c-10.52-1.31-20.52-4.32-28.67-9.06a41.88,41.88,0,0,1-10.62-8.5" transform="translate(-8.06 -20.9)" style="fill:#eaeae9"/><path d="M144.42,210.46l.5,176.68c18.51,2.3,38.61-.73,53-9.06,11.39-6.57,17.08-15.21,17-23.83l-.49-176.68c0,8.62-5.67,17.25-17.06,23.83-14.43,8.33-34.53,11.35-53,9.06" transform="translate(-8.06 -20.9)" style="fill:#dbdbdb"/></g><path d="M116,154.07c-22.63,13.07-22.75,34.25-.26,47.33s59.07,13.07,81.71,0,22.76-34.26.27-47.33-59.08-13.07-81.72,0" transform="translate(-8.06 -20.9)" style="fill:#eaeae9"/><rect width="344.6" height="722.94" style="fill:none"/><g style="clip-path:url(#clip-path-26)"><path d="M104.82,167.08l0,11.77c0,4.65,1.86,9.3,5.56,13.54l0-11.78c-3.7-4.24-5.56-8.88-5.57-13.53" transform="translate(-8.06 -20.9)" style="fill:#4d4948"/><path d="M110.39,180.61l0,11.78a37.82,37.82,0,0,0,9.59,7.67c7.36,4.28,16.38,7,25.88,8.18l0-11.78c-9.49-1.17-18.51-3.9-25.87-8.17a38.06,38.06,0,0,1-9.59-7.68" transform="translate(-8.06 -20.9)" style="fill:#656261"/><path d="M145.86,196.46l0,11.78c16.7,2.07,34.84-.65,47.87-8.18,10.28-5.93,15.42-13.72,15.39-21.5l0-11.78c0,7.78-5.12,15.57-15.39,21.51-13,7.52-31.18,10.25-47.87,8.17" transform="translate(-8.06 -20.9)" style="fill:#4d4948"/></g><path d="M120.22,145.57c-20.43,11.8-20.54,30.92-.24,42.72s53.31,11.79,73.75,0,20.54-30.92.24-42.72-53.33-11.79-73.75,0" transform="translate(-8.06 -20.9)" style="fill:#969493"/><rect width="344.6" height="722.94" style="fill:none"/><g style="clip-path:url(#clip-path-27)"><path d="M113.06,48.76l.34,117.79a17.26,17.26,0,0,0,4.67,11.35l-.33-117.78a17.31,17.31,0,0,1-4.68-11.36" transform="translate(-8.06 -20.9)" style="fill:#4d4948"/><path d="M117.74,60.12l.33,117.79a31.83,31.83,0,0,0,8,6.43,57.89,57.89,0,0,0,21.7,6.86l-.33-117.79a57.94,57.94,0,0,1-21.71-6.86,31.77,31.77,0,0,1-8-6.43" transform="translate(-8.06 -20.9)" style="fill:#656261"/><path d="M147.48,73.41l.34,117.79c14,1.73,29.24-.55,40.17-6.86,8.63-5,12.93-11.52,12.91-18l-.33-117.79c0,6.52-4.29,13.06-12.91,18-10.93,6.31-26.16,8.6-40.18,6.86" transform="translate(-8.06 -20.9)" style="fill:#4d4948"/></g><path d="M126,30.71c-17.14,9.89-17.24,25.94-.21,35.84s44.75,9.89,61.89,0,17.22-25.95.19-35.84-44.73-9.9-61.87,0" transform="translate(-8.06 -20.9)" style="fill:#969493"/><path d="M123.22,50.76c.77,4.28,4,8.43,9.61,11.71,13.17,7.64,34.56,7.64,47.81,0,5.73-3.31,9-7.5,9.77-11.81,1.06-5.66-2.15-11.53-9.62-15.88-13.15-7.64-34.55-7.64-47.8,0-7.56,4.37-10.82,10.29-9.77,16" transform="translate(-8.06 -20.9)" style="fill:#4d4948"/><path d="M123.22,50.76c.77,4.28,4,8.43,9.61,11.71,13.17,7.64,34.56,7.64,47.81,0,5.73-3.31,9-7.5,9.77-11.81-.76-4.28-4-8.44-9.62-11.72-13.15-7.64-34.55-7.64-47.8,0-5.72,3.31-9,7.5-9.77,11.82" transform="translate(-8.06 -20.9)" style="fill:#2c78b6"/><rect width="344.6" height="722.94" style="fill:none"/></g></svg>