<svg id="Ebene_1" data-name="Ebene 1" xmlns="http://www.w3.org/2000/svg" width="418.37" height="166.15" viewBox="0 0 418.37 166.15"><path d="M177,79a1.2,1.2,0,0,1-1.28-1.28V39.68a1.37,1.37,0,0,1,.35-1,1.25,1.25,0,0,1,.93-.34h12.38q6.15,0,9.64,1.8a10.34,10.34,0,0,1,5,5.31A22.75,22.75,0,0,1,205.51,54q.06,2.61.06,4.62c0,1.34,0,2.87-.06,4.62A24.59,24.59,0,0,1,204,72.1a10,10,0,0,1-4.88,5.2Q195.64,79,189.66,79Zm2.38-3.48h10a17.82,17.82,0,0,0,7.34-1.25,7.64,7.64,0,0,0,3.9-4A19.21,19.21,0,0,0,201.85,63c0-1.16.06-2.18.06-3V57.34c0-.85,0-1.86-.06-3q-.1-6.39-3-9.44t-9.82-3.05h-9.7Z" style="fill:#4d4948"/><path d="M227.24,79.59a19,19,0,0,1-8-1.51,12.51,12.51,0,0,1-5-3.89,9.07,9.07,0,0,1-1.86-5.06,1.08,1.08,0,0,1,.35-.81,1.18,1.18,0,0,1,.87-.35h1.16a1.16,1.16,0,0,1,.9.35,1.46,1.46,0,0,1,.38.81,6.94,6.94,0,0,0,1.45,3.23,9.08,9.08,0,0,0,3.6,2.67,15,15,0,0,0,6.16,1.08c3.8,0,6.56-.69,8.31-2.07a6.69,6.69,0,0,0,2.61-5.54,5.19,5.19,0,0,0-1.36-3.75,12,12,0,0,0-4.16-2.56q-2.79-1.12-7.14-2.52a42.44,42.44,0,0,1-6.8-2.76,9.87,9.87,0,0,1-3.92-3.46,9.9,9.9,0,0,1-1.25-5.23,9.31,9.31,0,0,1,1.57-5.31,10.71,10.71,0,0,1,4.56-3.75A17.15,17.15,0,0,1,227,37.77a17.72,17.72,0,0,1,6,.92,12.58,12.58,0,0,1,4.24,2.47,11.16,11.16,0,0,1,2.56,3.31,8.58,8.58,0,0,1,.93,3.46,1.33,1.33,0,0,1-.29.79,1.12,1.12,0,0,1-.93.37h-1.16a1.55,1.55,0,0,1-.73-.23,1.18,1.18,0,0,1-.55-.93A6.69,6.69,0,0,0,234,43.14a12,12,0,0,0-7-1.89,13.14,13.14,0,0,0-7,1.69,5.75,5.75,0,0,0-2.73,5.28A5.82,5.82,0,0,0,218.41,52a10.06,10.06,0,0,0,3.83,2.61c1.75.76,4,1.58,6.74,2.47a54.27,54.27,0,0,1,7.21,2.79,10.82,10.82,0,0,1,4.24,3.4,8.9,8.9,0,0,1,1.39,5.2,10.05,10.05,0,0,1-1.77,6,11,11,0,0,1-5,3.77A20.67,20.67,0,0,1,227.24,79.59Z" style="fill:#4d4948"/><path d="M251.52,79a1.38,1.38,0,0,1-1-.35,1.2,1.2,0,0,1-.37-.93V39.68a1.3,1.3,0,0,1,.37-1,1.38,1.38,0,0,1,1-.34H253a1.18,1.18,0,0,1,.88.29,1.45,1.45,0,0,1,.34.46l13.19,25.68L280.63,39.1a4.08,4.08,0,0,1,.37-.46,1.08,1.08,0,0,1,.85-.29h1.39a1.34,1.34,0,0,1,1,.34,1.37,1.37,0,0,1,.35,1V77.73a1.26,1.26,0,0,1-.35.93,1.34,1.34,0,0,1-1,.35h-1.05a1.29,1.29,0,0,1-.93-.35,1.25,1.25,0,0,1-.34-.93V46.25l-11.1,21.84a1.77,1.77,0,0,1-.67.87,2,2,0,0,1-1.13.29h-1.28a1.82,1.82,0,0,1-1.1-.29,2.33,2.33,0,0,1-.7-.87L253.85,46.25V77.73a1.26,1.26,0,0,1-.35.93,1.29,1.29,0,0,1-.93.35Z" style="fill:#4d4948"/><path d="M293.75,79a1.16,1.16,0,0,1-.92-.38,1.32,1.32,0,0,1-.35-1V76.51a2.56,2.56,0,0,1,.35-1.42,9.24,9.24,0,0,1,.52-.78l22.89-32.48h-22a1.22,1.22,0,0,1-.93-.35,1.26,1.26,0,0,1-.35-.93v-.87a1.37,1.37,0,0,1,.35-1,1.25,1.25,0,0,1,.93-.34h25a1.2,1.2,0,0,1,1.34,1.33v1.16a2.79,2.79,0,0,1-.23,1.22,8.48,8.48,0,0,1-.52.88L297.12,75.53H319.9a1.2,1.2,0,0,1,1.33,1.33v.87a1.22,1.22,0,0,1-.35.93,1.33,1.33,0,0,1-1,.35Z" style="fill:#4d4948"/><path d="M190.7,127.59a21.25,21.25,0,0,1-9.23-1.83,13.44,13.44,0,0,1-5.93-5.34,18.06,18.06,0,0,1-2.32-8.57c0-1.59-.06-3.29-.06-5.11s0-3.57.06-5.23A17.7,17.7,0,0,1,175.57,93a13.87,13.87,0,0,1,6-5.38,21,21,0,0,1,9.18-1.85,23.85,23.85,0,0,1,7.12,1,16.64,16.64,0,0,1,5.49,2.85A13.6,13.6,0,0,1,206.94,94a12.35,12.35,0,0,1,1.36,5.57,1,1,0,0,1-.32.87,1.24,1.24,0,0,1-.9.35H200.4a1.69,1.69,0,0,1-1.1-.32,2.12,2.12,0,0,1-.64-1.13q-.87-3.48-2.9-4.73a9.47,9.47,0,0,0-5.06-1.25,7.88,7.88,0,0,0-5.63,2c-1.4,1.32-2.15,3.49-2.27,6.51-.12,3.17-.12,6.43,0,9.76.12,3,.87,5.19,2.27,6.5a7.84,7.84,0,0,0,5.63,2,9.48,9.48,0,0,0,5.08-1.28q2.07-1.28,2.88-4.7a2.16,2.16,0,0,1,.64-1.14,1.75,1.75,0,0,1,1.1-.32h6.68a1.29,1.29,0,0,1,.9.35,1,1,0,0,1,.32.87,12.36,12.36,0,0,1-1.36,5.58,13.6,13.6,0,0,1-3.63,4.36,16.43,16.43,0,0,1-5.49,2.84A23.84,23.84,0,0,1,190.7,127.59Z" style="fill:#4d4948"/><path d="M227.65,127.59q-6.69,0-10.6-3.72c-2.62-2.47-4-6.08-4.16-10.8v-2.44a17.54,17.54,0,0,1,2-7.76,12.12,12.12,0,0,1,5-4.93,16,16,0,0,1,7.61-1.72,15.34,15.34,0,0,1,8.19,2,12.72,12.72,0,0,1,4.91,5.46,18.16,18.16,0,0,1,1.65,7.93V113a1.44,1.44,0,0,1-.4,1,1.37,1.37,0,0,1-1.05.44H222v.4a9.54,9.54,0,0,0,.7,3.4,5.79,5.79,0,0,0,1.89,2.47,5,5,0,0,0,3.05.93,5.45,5.45,0,0,0,2.32-.44,6,6,0,0,0,1.54-1,5.76,5.76,0,0,0,.9-1,2.84,2.84,0,0,1,.85-.79,2.53,2.53,0,0,1,1-.14h6.16a1.24,1.24,0,0,1,.9.35,1,1,0,0,1,.32.87,5.06,5.06,0,0,1-1,2.35,11,11,0,0,1-2.64,2.67,15.38,15.38,0,0,1-4.33,2.18A18.64,18.64,0,0,1,227.65,127.59ZM222,109.06h11.33v-.17a8.86,8.86,0,0,0-.67-3.58,5.47,5.47,0,0,0-1.94-2.41,5.34,5.34,0,0,0-3.08-.87,5.2,5.2,0,0,0-3.05.87,5.64,5.64,0,0,0-1.92,2.41,9,9,0,0,0-.67,3.58Z" style="fill:#4d4948"/><path d="M249.66,127a1.38,1.38,0,0,1-1-.41,1.4,1.4,0,0,1-.41-1V87.22a1.42,1.42,0,0,1,.41-1,1.41,1.41,0,0,1,1-.4h5.81a1.39,1.39,0,0,1,1.46,1.45v38.34a1.4,1.4,0,0,1-.41,1,1.39,1.39,0,0,1-1,.41Z" style="fill:#4d4948"/><path d="M265.7,127a1.39,1.39,0,0,1-1.05-.41,1.4,1.4,0,0,1-.41-1V87.22a1.39,1.39,0,0,1,1.46-1.45h5.81a1.41,1.41,0,0,1,1,.4,1.42,1.42,0,0,1,.41,1v38.34a1.4,1.4,0,0,1-.41,1,1.38,1.38,0,0,1-1,.41Z" style="fill:#4d4948"/><path d="M282.31,127a1.31,1.31,0,0,1-1-.41,1.39,1.39,0,0,1-.4-1V87.8a1.42,1.42,0,0,1,.4-1,1.34,1.34,0,0,1,1-.4H297a22.78,22.78,0,0,1,9.7,1.83,13.23,13.23,0,0,1,6,5.34,17.58,17.58,0,0,1,2.18,8.68c.08,1.71.12,3.2.12,4.48s0,2.75-.12,4.41a19.4,19.4,0,0,1-2.15,9,12.09,12.09,0,0,1-5.78,5.26,23.49,23.49,0,0,1-9.61,1.71Zm7.84-7.55H297a11.38,11.38,0,0,0,4.73-.84,5.63,5.63,0,0,0,2.76-2.73,11.7,11.7,0,0,0,1-4.91c0-1.13.07-2.13.09-3s0-1.78,0-2.68,0-1.87-.09-3c-.08-2.9-.82-5-2.24-6.39s-3.59-2-6.53-2h-6.51Z" style="fill:#4d4948"/><path d="M322.68,92.16a1.34,1.34,0,0,1-1-.41,1.39,1.39,0,0,1-.41-1V86a1.41,1.41,0,0,1,.41-1,1.29,1.29,0,0,1,1-.43h6.16A1.47,1.47,0,0,1,330.29,86v4.7a1.37,1.37,0,0,1-.43,1,1.45,1.45,0,0,1-1,.41Zm.18,34.85a1.41,1.41,0,0,1-1-.41,1.35,1.35,0,0,1-.44-1V98.25a1.37,1.37,0,0,1,.44-1,1.45,1.45,0,0,1,1-.41h5.86a1.35,1.35,0,0,1,1,.41,1.42,1.42,0,0,1,.41,1v27.31a1.4,1.4,0,0,1-.41,1,1.31,1.31,0,0,1-1,.41Z" style="fill:#4d4948"/><path d="M348.13,127a1.79,1.79,0,0,1-1.31-.44,4,4,0,0,1-.73-1l-10.92-27a1.08,1.08,0,0,1-.11-.52,1.22,1.22,0,0,1,.37-.9,1.27,1.27,0,0,1,.9-.38H342a1.47,1.47,0,0,1,1.13.41,2.27,2.27,0,0,1,.5.75l7.14,19.12L357.89,98a3.65,3.65,0,0,1,.52-.75,1.38,1.38,0,0,1,1.1-.41h5.64a1.3,1.3,0,0,1,1.28,1.28,2,2,0,0,1-.06.52l-10.92,27a2.83,2.83,0,0,1-.7,1,2,2,0,0,1-1.39.44Z" style="fill:#4d4948"/><path d="M383.68,127.59q-6.68,0-10.6-3.72c-2.62-2.47-4-6.08-4.16-10.8v-2.44a17.67,17.67,0,0,1,2-7.76A12.12,12.12,0,0,1,376,97.94a16,16,0,0,1,7.61-1.72,15.34,15.34,0,0,1,8.19,2,12.66,12.66,0,0,1,4.91,5.46,18.16,18.16,0,0,1,1.66,7.93V113a1.45,1.45,0,0,1-.41,1,1.37,1.37,0,0,1-1.05.44H378v.4a9.76,9.76,0,0,0,.69,3.4,5.79,5.79,0,0,0,1.89,2.47,5,5,0,0,0,3.05.93,5.5,5.5,0,0,0,2.33-.44,6.12,6.12,0,0,0,1.53-1,6.38,6.38,0,0,0,.91-1,2.72,2.72,0,0,1,.84-.79,2.56,2.56,0,0,1,1-.14h6.15a1.24,1.24,0,0,1,.9.35,1,1,0,0,1,.32.87,5,5,0,0,1-.95,2.35,11.29,11.29,0,0,1-2.65,2.67,15.25,15.25,0,0,1-4.33,2.18A18.59,18.59,0,0,1,383.68,127.59ZM378,109.06h11.32v-.17a9,9,0,0,0-.66-3.58,5.56,5.56,0,0,0-1.95-2.41,5.34,5.34,0,0,0-3.08-.87,5.2,5.2,0,0,0-3.05.87,5.64,5.64,0,0,0-1.92,2.41,9,9,0,0,0-.66,3.58Z" style="fill:#4d4948"/><path d="M81.22,158.52a25.53,25.53,0,0,1,5.56-18.78,21,21,0,0,1,1.69-2L90.33,136c.65-.58,1.35-1.11,2-1.64a17.59,17.59,0,0,1,2.17-1.47,33,33,0,0,1,4.7-2.4c.83-.3,1.67-.57,2.51-.84s1.71-.43,2.57-.65a30.37,30.37,0,0,1,10.5-.32,31.09,31.09,0,0,1,9.87,3.26,29.09,29.09,0,0,1,7.88,6.44,22.7,22.7,0,0,1,4.65,8.63,39,39,0,0,0-15.06-9.31,35.93,35.93,0,0,0-8.14-1.47c-.68,0-1.36,0-2-.07l-2,.11a17.32,17.32,0,0,0-2,.22l-1,.12-1,.23a28.34,28.34,0,0,0-7.67,2.64,12.6,12.6,0,0,0-1.81,1c-.57.38-1.19.68-1.76,1.07-1.1.83-2.29,1.59-3.33,2.54A38.22,38.22,0,0,0,81.22,158.52Z" style="fill:#006db5"/><path d="M15.68,88.12a38.86,38.86,0,0,1,23.7,2.41A43.81,43.81,0,0,1,50,96.92,49.09,49.09,0,0,1,58.56,106a45.64,45.64,0,0,1,8.31,23.22,39.26,39.26,0,0,1-5.52,23.18,70.53,70.53,0,0,0-1.48-22.16,56.66,56.66,0,0,0-8.63-19A56.4,56.4,0,0,0,36.12,96.78a59.65,59.65,0,0,0-9.61-5.06A83.82,83.82,0,0,0,15.68,88.12Z" style="fill:#006db5"/><path d="M44.53,19.24a24.93,24.93,0,0,1,8.69,16.11,29.52,29.52,0,0,1-3.8,18.83,35.54,35.54,0,0,1-2.86,4A20.35,20.35,0,0,1,44.9,60c-.59.57-1.15,1.17-1.78,1.69a28.51,28.51,0,0,1-8.3,5,24.9,24.9,0,0,1-18.32.19A40.88,40.88,0,0,0,32,61.06,34.08,34.08,0,0,0,38,56.14l1.26-1.42a12,12,0,0,0,1.19-1.48,31.77,31.77,0,0,0,2.13-3.12A33,33,0,0,0,47,35.62a33.93,33.93,0,0,0-.32-8A51.15,51.15,0,0,0,44.53,19.24Z" style="fill:#006db5"/><path d="M136,13.37A37.69,37.69,0,0,1,119.78,28a44.5,44.5,0,0,1-22.09,4.13A44.08,44.08,0,0,1,76.37,25a26.49,26.49,0,0,1-2.27-1.67c-.74-.58-1.47-1.14-2.19-1.74-1.34-1.3-2.66-2.61-3.89-4s-2.25-2.91-3.24-4.44a29.9,29.9,0,0,1-2.43-4.87,74.46,74.46,0,0,0,17.4,10.48A59.54,59.54,0,0,0,98.3,23.15a59.22,59.22,0,0,0,19-1.77c1.53-.5,3.12-.92,4.69-1.44.77-.3,1.53-.61,2.32-.9a20.61,20.61,0,0,0,2.33-.94L129,17l1.18-.53c.38-.19.75-.41,1.13-.61.76-.42,1.53-.83,2.32-1.24.39-.2.81-.39,1.2-.61S135.55,13.59,136,13.37Z" style="fill:#006db5"/><path d="M153.33,133.15a60.36,60.36,0,0,1-19.18-23.06,70.68,70.68,0,0,1-.65-59.88,59.83,59.83,0,0,1,18.69-23.46A118.57,118.57,0,0,0,140.86,53a94.47,94.47,0,0,0,.57,54.23A118.57,118.57,0,0,0,153.33,133.15Z" style="fill:#006db5"/><circle cx="90.4" cy="83.33" r="19.81" transform="translate(-21.83 33.12) rotate(-18.56)" style="fill:#afafaf"/></svg>